<?xml version="1.0" standalone="no"?>
<svg xmlns:xlink="http://www.w3.org/1999/xlink" id="mermaid-svg" width="undefined" xmlns="http://www.w3.org/2000/svg" height="undefined" style="max-width: 563.1875px;" viewBox="0 0 563.1875 466.15625"><style>#mermaid-svg{font-family:"trebuchet ms",verdana,arial,sans-serif;font-size:16px;fill:#333;}#mermaid-svg .error-icon{fill:#552222;}#mermaid-svg .error-text{fill:#552222;stroke:#552222;}#mermaid-svg .edge-thickness-normal{stroke-width:2px;}#mermaid-svg .edge-thickness-thick{stroke-width:3.5px;}#mermaid-svg .edge-pattern-solid{stroke-dasharray:0;}#mermaid-svg .edge-pattern-dashed{stroke-dasharray:3;}#mermaid-svg .edge-pattern-dotted{stroke-dasharray:2;}#mermaid-svg .marker{fill:#333333;}#mermaid-svg .marker.cross{stroke:#333333;}#mermaid-svg svg{font-family:"trebuchet ms",verdana,arial,sans-serif;font-size:16px;}#mermaid-svg .entityBox{fill:#ECECFF;stroke:#9370DB;}#mermaid-svg .attributeBoxOdd{fill:#ffffff;stroke:#9370DB;}#mermaid-svg .attributeBoxEven{fill:#f2f2f2;stroke:#9370DB;}#mermaid-svg .relationshipLabelBox{fill:hsl(80,100%,96.2745098039%);opacity:0.7;background-color:hsl(80,100%,96.2745098039%);}#mermaid-svg .relationshipLabelBox rect{opacity:0.5;}#mermaid-svg .relationshipLine{stroke:#333333;}#mermaid-svg:root{--mermaid-font-family:"trebuchet ms",verdana,arial,sans-serif;}#mermaid-svg er{fill:apa;}</style><g/><defs><marker id="ONLY_ONE_START" refX="0" refY="9" markerWidth="18" markerHeight="18" orient="auto"><path stroke="gray" fill="none" d="M9,0 L9,18 M15,0 L15,18"/></marker></defs><defs><marker id="ONLY_ONE_END" refX="18" refY="9" markerWidth="18" markerHeight="18" orient="auto"><path stroke="gray" fill="none" d="M3,0 L3,18 M9,0 L9,18"/></marker></defs><defs><marker id="ZERO_OR_ONE_START" refX="0" refY="9" markerWidth="30" markerHeight="18" orient="auto"><circle stroke="gray" fill="white" cx="21" cy="9" r="6"/><path stroke="gray" fill="none" d="M9,0 L9,18"/></marker></defs><defs><marker id="ZERO_OR_ONE_END" refX="30" refY="9" markerWidth="30" markerHeight="18" orient="auto"><circle stroke="gray" fill="white" cx="9" cy="9" r="6"/><path stroke="gray" fill="none" d="M21,0 L21,18"/></marker></defs><defs><marker id="ONE_OR_MORE_START" refX="18" refY="18" markerWidth="45" markerHeight="36" orient="auto"><path stroke="gray" fill="none" d="M0,18 Q 18,0 36,18 Q 18,36 0,18 M42,9 L42,27"/></marker></defs><defs><marker id="ONE_OR_MORE_END" refX="27" refY="18" markerWidth="45" markerHeight="36" orient="auto"><path stroke="gray" fill="none" d="M3,9 L3,27 M9,18 Q27,0 45,18 Q27,36 9,18"/></marker></defs><defs><marker id="ZERO_OR_MORE_START" refX="18" refY="18" markerWidth="57" markerHeight="36" orient="auto"><circle stroke="gray" fill="white" cx="48" cy="18" r="6"/><path stroke="gray" fill="none" d="M0,18 Q18,0 36,18 Q18,36 0,18"/></marker></defs><defs><marker id="ZERO_OR_MORE_END" refX="39" refY="18" markerWidth="57" markerHeight="36" orient="auto"><circle stroke="gray" fill="white" cx="9" cy="18" r="6"/><path stroke="gray" fill="none" d="M21,18 Q39,0 57,18 Q39,36 21,18"/></marker></defs><path class="er relationshipLine" d="M70,278.109375L70,286.4427083333333C70,294.7760416666667,70,311.4427083333333,100,330.7356204710145C130,350.0285326086957,190,371.9476902173913,220,382.90726902173907L250,393.86684782608694" stroke="gray" fill="none" marker-end="url(#ONLY_ONE_END)" marker-start="url(#ZERO_OR_MORE_START)"/><path class="er relationshipLine" d="M120,214.31510416666666L131.66666666666666,209.9370659722222C143.33333333333334,205.55902777777774,166.66666666666666,196.80295138888889,181.25,192.42491319444443C195.83333333333334,188.046875,201.66666666666666,188.046875,207.5,195.55208333333334C213.33333333333334,203.05729166666666,219.16666666666666,218.06770833333334,219.16666666666666,233.078125C219.16666666666666,248.08854166666666,213.33333333333334,263.0989583333333,207.5,270.6041666666667C201.66666666666666,278.109375,195.83333333333334,278.109375,181.25,273.73133680555554C166.66666666666666,269.35329861111114,143.33333333333334,260.59722222222223,131.66666666666666,256.21918402777777L120,251.84114583333334" stroke="gray" fill="none" marker-end="url(#ONLY_ONE_END)" marker-start="url(#ZERO_OR_MORE_START)"/><path class="er relationshipLine" d="M430,82.03125L446.6666666666667,91.3671875C463.3333333333333,100.703125,496.6666666666667,119.375,513.3333333333334,144.54947916666666C530,169.72395833333334,530,201.40104166666666,530,233.078125C530,264.7552083333333,530,296.4322916666667,500,323.2304121376812C470,350.0285326086957,410,371.9476902173913,380,382.90726902173907L350,393.86684782608694" stroke="gray" fill="none" marker-end="url(#ONLY_ONE_END)" marker-start="url(#ZERO_OR_MORE_START)"/><path class="er relationshipLine" d="M330,67.57560483870968L286.6666666666667,79.32081653225806C243.33333333333334,91.06602822580646,156.66666666666666,114.55645161290323,113.33333333333333,134.63499663978493C70,154.71354166666666,70,171.38020833333334,70,179.71354166666666L70,188.046875" stroke="gray" fill="none" marker-end="url(#ONLY_ONE_END)" marker-start="url(#ZERO_OR_MORE_START)"/><path class="er relationshipLine" d="M380,88.046875L380,96.38020833333333C380,104.71354166666667,380,121.38020833333333,380,139.88151041666666C380,158.3828125,380,178.71875,380,188.88671875L380,199.0546875" stroke="gray" fill="none" marker-end="url(#ONLY_ONE_END)" marker-start="url(#ZERO_OR_MORE_START)"/><g id="Proof" transform="translate(250,378.109375 )"><rect class="er entityBox" fill="honeydew" fill-opacity="100%" stroke="gray" x="0" y="0" width="100" height="68.046875"/><text class="er entityLabel" id="entity-Proof" x="0" y="0" dominant-baseline="middle" text-anchor="middle" style="font-family: &quot;trebuchet ms&quot;, verdana, arial, sans-serif;; font-size: 12px" transform="translate(50,12.0078125)">Proof</text><rect class="er attributeBoxOdd" fill="honeydew" fill-opacity="100%" stroke="gray" x="0" y="24.015625" width="37.9921875" height="22.015625"/><text class="er entityLabel" id="entity-Proof-attr-1-type" x="0" y="0" dominant-baseline="middle" text-anchor="left" style="font-family: &quot;trebuchet ms&quot;, verdana, arial, sans-serif;; font-size: 10.2px" transform="translate(5,35.0234375)">Int</text><rect class="er attributeBoxOdd" fill="honeydew" fill-opacity="100%" stroke="gray" x="037.9921875" y="24.015625" width="62.0078125" height="22.015625"/><text class="er entityLabel" id="entity-Proof-attr-1-name" x="0" y="0" dominant-baseline="middle" text-anchor="left" style="font-family: &quot;trebuchet ms&quot;, verdana, arial, sans-serif;; font-size: 10.2px" transform="translate(42.9921875,35.0234375)">id</text><rect class="er attributeBoxEven" fill="honeydew" fill-opacity="100%" stroke="gray" x="0" y="46.03125" width="37.9921875" height="22.015625"/><text class="er entityLabel" id="entity-Proof-attr-2-type" x="0" y="0" dominant-baseline="middle" text-anchor="left" style="font-family: &quot;trebuchet ms&quot;, verdana, arial, sans-serif;; font-size: 10.2px" transform="translate(5,57.0390625)">String</text><rect class="er attributeBoxEven" fill="honeydew" fill-opacity="100%" stroke="gray" x="037.9921875" y="46.03125" width="62.0078125" height="22.015625"/><text class="er entityLabel" id="entity-Proof-attr-2-name" x="0" y="0" dominant-baseline="middle" text-anchor="left" style="font-family: &quot;trebuchet ms&quot;, verdana, arial, sans-serif;; font-size: 10.2px" transform="translate(42.9921875,57.0390625)">description</text></g><g id="Step" transform="translate(20,188.046875 )"><rect class="er entityBox" fill="honeydew" fill-opacity="100%" stroke="gray" x="0" y="0" width="100" height="90.0625"/><text class="er entityLabel" id="entity-Step" x="0" y="0" dominant-baseline="middle" text-anchor="middle" style="font-family: &quot;trebuchet ms&quot;, verdana, arial, sans-serif;; font-size: 12px" transform="translate(50,12.0078125)">Step</text><rect class="er attributeBoxOdd" fill="honeydew" fill-opacity="100%" stroke="gray" x="0" y="24.015625" width="39.828125" height="22.015625"/><text class="er entityLabel" id="entity-Step-attr-1-type" x="0" y="0" dominant-baseline="middle" text-anchor="left" style="font-family: &quot;trebuchet ms&quot;, verdana, arial, sans-serif;; font-size: 10.2px" transform="translate(5,35.0234375)">Int</text><rect class="er attributeBoxOdd" fill="honeydew" fill-opacity="100%" stroke="gray" x="039.828125" y="24.015625" width="60.171875" height="22.015625"/><text class="er entityLabel" id="entity-Step-attr-1-name" x="0" y="0" dominant-baseline="middle" text-anchor="left" style="font-family: &quot;trebuchet ms&quot;, verdana, arial, sans-serif;; font-size: 10.2px" transform="translate(44.828125,35.0234375)">id</text><rect class="er attributeBoxEven" fill="honeydew" fill-opacity="100%" stroke="gray" x="0" y="46.03125" width="39.828125" height="22.015625"/><text class="er entityLabel" id="entity-Step-attr-2-type" x="0" y="0" dominant-baseline="middle" text-anchor="left" style="font-family: &quot;trebuchet ms&quot;, verdana, arial, sans-serif;; font-size: 10.2px" transform="translate(5,57.0390625)">String</text><rect class="er attributeBoxEven" fill="honeydew" fill-opacity="100%" stroke="gray" x="039.828125" y="46.03125" width="60.171875" height="22.015625"/><text class="er entityLabel" id="entity-Step-attr-2-name" x="0" y="0" dominant-baseline="middle" text-anchor="left" style="font-family: &quot;trebuchet ms&quot;, verdana, arial, sans-serif;; font-size: 10.2px" transform="translate(44.828125,57.0390625)">statement</text><rect class="er attributeBoxOdd" fill="honeydew" fill-opacity="100%" stroke="gray" x="0" y="68.046875" width="39.828125" height="22.015625"/><text class="er entityLabel" id="entity-Step-attr-3-type" x="0" y="0" dominant-baseline="middle" text-anchor="left" style="font-family: &quot;trebuchet ms&quot;, verdana, arial, sans-serif;; font-size: 10.2px" transform="translate(5,79.0546875)">String</text><rect class="er attributeBoxOdd" fill="honeydew" fill-opacity="100%" stroke="gray" x="039.828125" y="68.046875" width="60.171875" height="22.015625"/><text class="er entityLabel" id="entity-Step-attr-3-name" x="0" y="0" dominant-baseline="middle" text-anchor="left" style="font-family: &quot;trebuchet ms&quot;, verdana, arial, sans-serif;; font-size: 10.2px" transform="translate(44.828125,79.0546875)">detailed</text></g><g id="User" transform="translate(330,199.0546875 )"><rect class="er entityBox" fill="honeydew" fill-opacity="100%" stroke="gray" x="0" y="0" width="100" height="68.046875"/><text class="er entityLabel" id="entity-User" x="0" y="0" dominant-baseline="middle" text-anchor="middle" style="font-family: &quot;trebuchet ms&quot;, verdana, arial, sans-serif;; font-size: 12px" transform="translate(50,12.0078125)">User</text><rect class="er attributeBoxOdd" fill="honeydew" fill-opacity="100%" stroke="gray" x="0" y="24.015625" width="51.046875" height="22.015625"/><text class="er entityLabel" id="entity-User-attr-1-type" x="0" y="0" dominant-baseline="middle" text-anchor="left" style="font-family: &quot;trebuchet ms&quot;, verdana, arial, sans-serif;; font-size: 10.2px" transform="translate(5,35.0234375)">Int</text><rect class="er attributeBoxOdd" fill="honeydew" fill-opacity="100%" stroke="gray" x="051.046875" y="24.015625" width="48.953125" height="22.015625"/><text class="er entityLabel" id="entity-User-attr-1-name" x="0" y="0" dominant-baseline="middle" text-anchor="left" style="font-family: &quot;trebuchet ms&quot;, verdana, arial, sans-serif;; font-size: 10.2px" transform="translate(56.046875,35.0234375)">id</text><rect class="er attributeBoxEven" fill="honeydew" fill-opacity="100%" stroke="gray" x="0" y="46.03125" width="51.046875" height="22.015625"/><text class="er entityLabel" id="entity-User-attr-2-type" x="0" y="0" dominant-baseline="middle" text-anchor="left" style="font-family: &quot;trebuchet ms&quot;, verdana, arial, sans-serif;; font-size: 10.2px" transform="translate(5,57.0390625)">String</text><rect class="er attributeBoxEven" fill="honeydew" fill-opacity="100%" stroke="gray" x="051.046875" y="46.03125" width="48.953125" height="22.015625"/><text class="er entityLabel" id="entity-User-attr-2-name" x="0" y="0" dominant-baseline="middle" text-anchor="left" style="font-family: &quot;trebuchet ms&quot;, verdana, arial, sans-serif;; font-size: 10.2px" transform="translate(56.046875,57.0390625)">email</text></g><g id="Comment" transform="translate(330,20 )"><rect class="er entityBox" fill="honeydew" fill-opacity="100%" stroke="gray" x="0" y="0" width="100" height="68.046875"/><text class="er entityLabel" id="entity-Comment" x="0" y="0" dominant-baseline="middle" text-anchor="middle" style="font-family: &quot;trebuchet ms&quot;, verdana, arial, sans-serif;; font-size: 12px" transform="translate(50,12.0078125)">Comment</text><rect class="er attributeBoxOdd" fill="honeydew" fill-opacity="100%" stroke="gray" x="0" y="24.015625" width="43.5390625" height="22.015625"/><text class="er entityLabel" id="entity-Comment-attr-1-type" x="0" y="0" dominant-baseline="middle" text-anchor="left" style="font-family: &quot;trebuchet ms&quot;, verdana, arial, sans-serif;; font-size: 10.2px" transform="translate(5,35.0234375)">Int</text><rect class="er attributeBoxOdd" fill="honeydew" fill-opacity="100%" stroke="gray" x="043.5390625" y="24.015625" width="56.4609375" height="22.015625"/><text class="er entityLabel" id="entity-Comment-attr-1-name" x="0" y="0" dominant-baseline="middle" text-anchor="left" style="font-family: &quot;trebuchet ms&quot;, verdana, arial, sans-serif;; font-size: 10.2px" transform="translate(48.5390625,35.0234375)">id</text><rect class="er attributeBoxEven" fill="honeydew" fill-opacity="100%" stroke="gray" x="0" y="46.03125" width="43.5390625" height="22.015625"/><text class="er entityLabel" id="entity-Comment-attr-2-type" x="0" y="0" dominant-baseline="middle" text-anchor="left" style="font-family: &quot;trebuchet ms&quot;, verdana, arial, sans-serif;; font-size: 10.2px" transform="translate(5,57.0390625)">String</text><rect class="er attributeBoxEven" fill="honeydew" fill-opacity="100%" stroke="gray" x="043.5390625" y="46.03125" width="56.4609375" height="22.015625"/><text class="er entityLabel" id="entity-Comment-attr-2-name" x="0" y="0" dominant-baseline="middle" text-anchor="left" style="font-family: &quot;trebuchet ms&quot;, verdana, arial, sans-serif;; font-size: 10.2px" transform="translate(48.5390625,57.0390625)">contents</text></g><rect class="er relationshipLabelBox" x="120.433837890625" y="346.0789794921875" width="46.78125" height="14.015625" fill="white" fill-opacity="85%"/><text class="er relationshipLabel" id="rel1" x="143.824462890625" y="353.0867919921875" text-anchor="middle" dominant-baseline="middle" style="font-family: &quot;trebuchet ms&quot;, verdana, arial, sans-serif;; font-size: 12px">subProof</text><rect class="er relationshipLabelBox" x="207.1197967529297" y="226.0703125" width="24.09375" height="14.015625" fill="white" fill-opacity="85%"/><text class="er relationshipLabel" id="rel2" x="219.1666717529297" y="233.078125" text-anchor="middle" dominant-baseline="middle" style="font-family: &quot;trebuchet ms&quot;, verdana, arial, sans-serif;; font-size: 12px">Step</text><rect class="er relationshipLabelBox" x="514.2230224609375" y="260.3154296875" width="28.6875" height="14.015625" fill="white" fill-opacity="85%"/><text class="er relationshipLabel" id="rel3" x="528.5667724609375" y="267.3232421875" text-anchor="middle" dominant-baseline="middle" style="font-family: &quot;trebuchet ms&quot;, verdana, arial, sans-serif;; font-size: 12px">Proof</text><rect class="er relationshipLabelBox" x="172.81565856933594" y="101.5141830444336" width="24.09375" height="14.015625" fill="white" fill-opacity="85%"/><text class="er relationshipLabel" id="rel4" x="184.86253356933594" y="108.5219955444336" text-anchor="middle" dominant-baseline="middle" style="font-family: &quot;trebuchet ms&quot;, verdana, arial, sans-serif;; font-size: 12px">Step</text><rect class="er relationshipLabelBox" x="367.3984375" y="136.54296875" width="25.203125" height="14.015625" fill="white" fill-opacity="85%"/><text class="er relationshipLabel" id="rel5" x="380" y="143.55078125" text-anchor="middle" dominant-baseline="middle" style="font-family: &quot;trebuchet ms&quot;, verdana, arial, sans-serif;; font-size: 12px">User</text></svg>