<?xml version="1.0" standalone="no"?>
<svg xmlns:xlink="http://www.w3.org/1999/xlink" id="mermaid-svg" width="undefined" xmlns="http://www.w3.org/2000/svg" height="undefined" style="max-width: 520.7838439941406px;" viewBox="0 0 520.7838439941406 276.09375"><style>#mermaid-svg{font-family:"trebuchet ms",verdana,arial,sans-serif;font-size:16px;fill:#333;}#mermaid-svg .error-icon{fill:#552222;}#mermaid-svg .error-text{fill:#552222;stroke:#552222;}#mermaid-svg .edge-thickness-normal{stroke-width:2px;}#mermaid-svg .edge-thickness-thick{stroke-width:3.5px;}#mermaid-svg .edge-pattern-solid{stroke-dasharray:0;}#mermaid-svg .edge-pattern-dashed{stroke-dasharray:3;}#mermaid-svg .edge-pattern-dotted{stroke-dasharray:2;}#mermaid-svg .marker{fill:#333333;}#mermaid-svg .marker.cross{stroke:#333333;}#mermaid-svg svg{font-family:"trebuchet ms",verdana,arial,sans-serif;font-size:16px;}#mermaid-svg .entityBox{fill:#ECECFF;stroke:#9370DB;}#mermaid-svg .attributeBoxOdd{fill:#ffffff;stroke:#9370DB;}#mermaid-svg .attributeBoxEven{fill:#f2f2f2;stroke:#9370DB;}#mermaid-svg .relationshipLabelBox{fill:hsl(80,100%,96.2745098039%);opacity:0.7;background-color:hsl(80,100%,96.2745098039%);}#mermaid-svg .relationshipLabelBox rect{opacity:0.5;}#mermaid-svg .relationshipLine{stroke:#333333;}#mermaid-svg:root{--mermaid-font-family:"trebuchet ms",verdana,arial,sans-serif;}#mermaid-svg er{fill:apa;}</style><g/><defs><marker id="ONLY_ONE_START" refX="0" refY="9" markerWidth="18" markerHeight="18" orient="auto"><path stroke="gray" fill="none" d="M9,0 L9,18 M15,0 L15,18"/></marker></defs><defs><marker id="ONLY_ONE_END" refX="18" refY="9" markerWidth="18" markerHeight="18" orient="auto"><path stroke="gray" fill="none" d="M3,0 L3,18 M9,0 L9,18"/></marker></defs><defs><marker id="ZERO_OR_ONE_START" refX="0" refY="9" markerWidth="30" markerHeight="18" orient="auto"><circle stroke="gray" fill="white" cx="21" cy="9" r="6"/><path stroke="gray" fill="none" d="M9,0 L9,18"/></marker></defs><defs><marker id="ZERO_OR_ONE_END" refX="30" refY="9" markerWidth="30" markerHeight="18" orient="auto"><circle stroke="gray" fill="white" cx="9" cy="9" r="6"/><path stroke="gray" fill="none" d="M21,0 L21,18"/></marker></defs><defs><marker id="ONE_OR_MORE_START" refX="18" refY="18" markerWidth="45" markerHeight="36" orient="auto"><path stroke="gray" fill="none" d="M0,18 Q 18,0 36,18 Q 18,36 0,18 M42,9 L42,27"/></marker></defs><defs><marker id="ONE_OR_MORE_END" refX="27" refY="18" markerWidth="45" markerHeight="36" orient="auto"><path stroke="gray" fill="none" d="M3,9 L3,27 M9,18 Q27,0 45,18 Q27,36 9,18"/></marker></defs><defs><marker id="ZERO_OR_MORE_START" refX="18" refY="18" markerWidth="57" markerHeight="36" orient="auto"><circle stroke="gray" fill="white" cx="48" cy="18" r="6"/><path stroke="gray" fill="none" d="M0,18 Q18,0 36,18 Q18,36 0,18"/></marker></defs><defs><marker id="ZERO_OR_MORE_END" refX="39" refY="18" markerWidth="57" markerHeight="36" orient="auto"><circle stroke="gray" fill="white" cx="9" cy="18" r="6"/><path stroke="gray" fill="none" d="M21,18 Q39,0 57,18 Q39,36 21,18"/></marker></defs><path class="er relationshipLine" d="M92.60808926080892,77.0390625L80.50674105067411,87.20703125C68.40539284053928,97.375,44.20269642026964,117.7109375,37.06028203936154,136.21223958333334C29.91786765845343,154.71354166666666,39.83573531690686,171.38020833333334,44.79466914613358,179.71354166666666L49.753602975360295,188.046875" stroke="gray" fill="none" marker-end="url(#ONLY_ONE_END)" marker-start="url(#ZERO_OR_ONE_START)"/><path class="er relationshipLine" d="M162.45746164574615,77.0390625L181.21455137145514,87.20703125C199.9716410971641,97.375,237.48582054858207,117.7109375,268.9493258949326,138.046875C300.41283124128313,158.3828125,325.82566248256626,178.71875,338.5320781032078,188.88671875L351.2384937238494,199.0546875" stroke="gray" fill="none" marker-end="url(#ONLY_ONE_END)" marker-start="url(#ZERO_OR_ONE_START)"/><path class="er relationshipLine" d="M274.953125,81.17859280493951L257.46875,90.65663983744959C239.984375,100.13468686995968,205.015625,119.09078093497983,177.60873334108166,136.90216130082325C150.20184168216335,154.71354166666666,130.35680836432667,171.38020833333334,120.43429170540834,179.71354166666666L110.51177504649,188.046875" stroke="gray" fill="none" marker-end="url(#ONLY_ONE_END)" marker-start="url(#ZERO_OR_ONE_START)"/><path class="er relationshipLine" d="M367.54532775453276,88.046875L377.954439795444,96.38020833333333C388.36355183635516,104.71354166666667,409.1817759181776,121.38020833333333,413.54021385402143,139.88151041666666C417.8986517898652,158.3828125,405.7973035797304,178.71875,399.74662947466294,188.88671875L393.69595536959554,199.0546875" stroke="gray" fill="none" marker-end="url(#ONLY_ONE_END)" marker-start="url(#ZERO_OR_MORE_START)"/><path class="er relationshipLine" d="M375.140625,39.83151183970856L386.8072916666667,36.5262598664238C398.4739583333333,33.22100789313904,421.8072916666667,26.61050394656952,436.390625,23.305251973284758C450.9739583333333,20,456.8072916666667,20,462.640625,25.670572916666668C468.4739583333333,31.341145833333332,474.3072916666667,42.682291666666664,474.3072916666667,54.0234375C474.3072916666667,65.36458333333333,468.4739583333333,76.70572916666667,462.640625,82.37630208333333C456.8072916666667,88.046875,450.9739583333333,88.046875,436.390625,84.74162302671523C421.8072916666667,81.43637105343048,398.4739583333333,74.82586710686097,386.8072916666667,71.5206151335762L375.140625,68.21536316029145" stroke="gray" fill="none" marker-end="url(#ONLY_ONE_END)" marker-start="url(#ZERO_OR_MORE_START)"/><path class="er relationshipLine" d="M120,207.89388020833334L131.66666666666666,204.58604600694446C143.33333333333334,201.27821180555557,166.66666666666666,194.6625434027778,181.25,191.3547092013889C195.83333333333334,188.046875,201.66666666666666,188.046875,207.5,193.71744791666666C213.33333333333334,199.38802083333334,219.16666666666666,210.72916666666666,219.16666666666666,222.0703125C219.16666666666666,233.41145833333334,213.33333333333334,244.75260416666666,207.5,250.42317708333334C201.66666666666666,256.09375,195.83333333333334,256.09375,181.25,252.78591579861111C166.66666666666666,249.4780815972222,143.33333333333334,242.86241319444443,131.66666666666666,239.55457899305554L120,236.24674479166666" stroke="gray" fill="none" marker-end="url(#ONLY_ONE_END)" marker-start="url(#ZERO_OR_ONE_START)"/><g id="Theorem" transform="translate(70,31.0078125 )"><rect class="er entityBox" fill="honeydew" fill-opacity="100%" stroke="gray" x="0" y="0" width="100" height="46.03125"/><text class="er entityLabel" id="entity-Theorem" x="0" y="0" dominant-baseline="middle" text-anchor="middle" style="font-family: &quot;trebuchet ms&quot;, verdana, arial, sans-serif;; font-size: 12px" transform="translate(50,12.0078125)">Theorem</text><rect class="er attributeBoxOdd" fill="honeydew" fill-opacity="100%" stroke="gray" x="0" y="24.015625" width="51.9375" height="22.015625"/><text class="er entityLabel" id="entity-Theorem-attr-1-type" x="0" y="0" dominant-baseline="middle" text-anchor="left" style="font-family: &quot;trebuchet ms&quot;, verdana, arial, sans-serif;; font-size: 10.2px" transform="translate(5,35.0234375)">Int</text><rect class="er attributeBoxOdd" fill="honeydew" fill-opacity="100%" stroke="gray" x="051.9375" y="24.015625" width="48.0625" height="22.015625"/><text class="er entityLabel" id="entity-Theorem-attr-1-name" x="0" y="0" dominant-baseline="middle" text-anchor="left" style="font-family: &quot;trebuchet ms&quot;, verdana, arial, sans-serif;; font-size: 10.2px" transform="translate(56.9375,35.0234375)">id</text></g><g id="Proof" transform="translate(330,199.0546875 )"><rect class="er entityBox" fill="honeydew" fill-opacity="100%" stroke="gray" x="0" y="0" width="100" height="46.03125"/><text class="er entityLabel" id="entity-Proof" x="0" y="0" dominant-baseline="middle" text-anchor="middle" style="font-family: &quot;trebuchet ms&quot;, verdana, arial, sans-serif;; font-size: 12px" transform="translate(50,12.0078125)">Proof</text><rect class="er attributeBoxOdd" fill="honeydew" fill-opacity="100%" stroke="gray" x="0" y="24.015625" width="51.9375" height="22.015625"/><text class="er entityLabel" id="entity-Proof-attr-1-type" x="0" y="0" dominant-baseline="middle" text-anchor="left" style="font-family: &quot;trebuchet ms&quot;, verdana, arial, sans-serif;; font-size: 10.2px" transform="translate(5,35.0234375)">Int</text><rect class="er attributeBoxOdd" fill="honeydew" fill-opacity="100%" stroke="gray" x="051.9375" y="24.015625" width="48.0625" height="22.015625"/><text class="er entityLabel" id="entity-Proof-attr-1-name" x="0" y="0" dominant-baseline="middle" text-anchor="left" style="font-family: &quot;trebuchet ms&quot;, verdana, arial, sans-serif;; font-size: 10.2px" transform="translate(56.9375,35.0234375)">id</text></g><g id="ProofStep" transform="translate(274.953125,20 )"><rect class="er entityBox" fill="honeydew" fill-opacity="100%" stroke="gray" x="0" y="0" width="100.1875" height="68.046875"/><text class="er entityLabel" id="entity-ProofStep" x="0" y="0" dominant-baseline="middle" text-anchor="middle" style="font-family: &quot;trebuchet ms&quot;, verdana, arial, sans-serif;; font-size: 12px" transform="translate(50.09375,12.0078125)">ProofStep</text><rect class="er attributeBoxOdd" fill="honeydew" fill-opacity="100%" stroke="gray" x="0" y="24.015625" width="36.53125" height="22.015625"/><text class="er entityLabel" id="entity-ProofStep-attr-1-type" x="0" y="0" dominant-baseline="middle" text-anchor="left" style="font-family: &quot;trebuchet ms&quot;, verdana, arial, sans-serif;; font-size: 10.2px" transform="translate(5,35.0234375)">Int</text><rect class="er attributeBoxOdd" fill="honeydew" fill-opacity="100%" stroke="gray" x="036.53125" y="24.015625" width="63.65625" height="22.015625"/><text class="er entityLabel" id="entity-ProofStep-attr-1-name" x="0" y="0" dominant-baseline="middle" text-anchor="left" style="font-family: &quot;trebuchet ms&quot;, verdana, arial, sans-serif;; font-size: 10.2px" transform="translate(41.53125,35.0234375)">id</text><rect class="er attributeBoxEven" fill="honeydew" fill-opacity="100%" stroke="gray" x="0" y="46.03125" width="36.53125" height="22.015625"/><text class="er entityLabel" id="entity-ProofStep-attr-2-type" x="0" y="0" dominant-baseline="middle" text-anchor="left" style="font-family: &quot;trebuchet ms&quot;, verdana, arial, sans-serif;; font-size: 10.2px" transform="translate(5,57.0390625)">String</text><rect class="er attributeBoxEven" fill="honeydew" fill-opacity="100%" stroke="gray" x="036.53125" y="46.03125" width="63.65625" height="22.015625"/><text class="er entityLabel" id="entity-ProofStep-attr-2-name" x="0" y="0" dominant-baseline="middle" text-anchor="left" style="font-family: &quot;trebuchet ms&quot;, verdana, arial, sans-serif;; font-size: 10.2px" transform="translate(41.53125,57.0390625)">explanation</text></g><g id="Claim" transform="translate(20,188.046875 )"><rect class="er entityBox" fill="honeydew" fill-opacity="100%" stroke="gray" x="0" y="0" width="100" height="68.046875"/><text class="er entityLabel" id="entity-Claim" x="0" y="0" dominant-baseline="middle" text-anchor="middle" style="font-family: &quot;trebuchet ms&quot;, verdana, arial, sans-serif;; font-size: 12px" transform="translate(50,12.0078125)">Claim</text><rect class="er attributeBoxOdd" fill="honeydew" fill-opacity="100%" stroke="gray" x="0" y="24.015625" width="39.8671875" height="22.015625"/><text class="er entityLabel" id="entity-Claim-attr-1-type" x="0" y="0" dominant-baseline="middle" text-anchor="left" style="font-family: &quot;trebuchet ms&quot;, verdana, arial, sans-serif;; font-size: 10.2px" transform="translate(5,35.0234375)">Int</text><rect class="er attributeBoxOdd" fill="honeydew" fill-opacity="100%" stroke="gray" x="039.8671875" y="24.015625" width="60.1328125" height="22.015625"/><text class="er entityLabel" id="entity-Claim-attr-1-name" x="0" y="0" dominant-baseline="middle" text-anchor="left" style="font-family: &quot;trebuchet ms&quot;, verdana, arial, sans-serif;; font-size: 10.2px" transform="translate(44.8671875,35.0234375)">id</text><rect class="er attributeBoxEven" fill="honeydew" fill-opacity="100%" stroke="gray" x="0" y="46.03125" width="39.8671875" height="22.015625"/><text class="er entityLabel" id="entity-Claim-attr-2-type" x="0" y="0" dominant-baseline="middle" text-anchor="left" style="font-family: &quot;trebuchet ms&quot;, verdana, arial, sans-serif;; font-size: 10.2px" transform="translate(5,57.0390625)">String</text><rect class="er attributeBoxEven" fill="honeydew" fill-opacity="100%" stroke="gray" x="039.8671875" y="46.03125" width="60.1328125" height="22.015625"/><text class="er entityLabel" id="entity-Claim-attr-2-name" x="0" y="0" dominant-baseline="middle" text-anchor="left" style="font-family: &quot;trebuchet ms&quot;, verdana, arial, sans-serif;; font-size: 10.2px" transform="translate(44.8671875,57.0390625)">statement</text></g><rect class="er relationshipLabelBox" x="28.755382537841797" y="117.70333099365234" width="29.1875" height="14.015625" fill="white" fill-opacity="85%"/><text class="er relationshipLabel" id="rel49" x="43.3491325378418" y="124.71114349365234" text-anchor="middle" dominant-baseline="middle" style="font-family: &quot;trebuchet ms&quot;, verdana, arial, sans-serif;; font-size: 12px">claim</text><rect class="er relationshipLabelBox" x="245.7791748046875" y="125.60079956054688" width="29.234375" height="14.015625" fill="white" fill-opacity="85%"/><text class="er relationshipLabel" id="rel50" x="260.3963623046875" y="132.60861206054688" text-anchor="middle" dominant-baseline="middle" style="font-family: &quot;trebuchet ms&quot;, verdana, arial, sans-serif;; font-size: 12px">proof</text><rect class="er relationshipLabelBox" x="163.2061309814453" y="122.47238159179688" width="52.265625" height="14.015625" fill="white" fill-opacity="85%"/><text class="er relationshipLabel" id="rel51" x="189.3389434814453" y="129.48019409179688" text-anchor="middle" dominant-baseline="middle" style="font-family: &quot;trebuchet ms&quot;, verdana, arial, sans-serif;; font-size: 12px">definition</text><rect class="er relationshipLabelBox" x="398.0299072265625" y="129.7522430419922" width="29.234375" height="14.015625" fill="white" fill-opacity="85%"/><text class="er relationshipLabel" id="rel52" x="412.6470947265625" y="136.7600555419922" text-anchor="middle" dominant-baseline="middle" style="font-family: &quot;trebuchet ms&quot;, verdana, arial, sans-serif;; font-size: 12px">proof</text><rect class="er relationshipLabelBox" x="447.8307189941406" y="47.01561737060547" width="52.953125" height="14.015625" fill="white" fill-opacity="85%"/><text class="er relationshipLabel" id="rel53" x="474.3072814941406" y="54.02342987060547" text-anchor="middle" dominant-baseline="middle" style="font-family: &quot;trebuchet ms&quot;, verdana, arial, sans-serif;; font-size: 12px">claimStep</text><rect class="er relationshipLabelBox" x="193.6588592529297" y="215.06251525878906" width="51.015625" height="14.015625" fill="white" fill-opacity="85%"/><text class="er relationshipLabel" id="rel54" x="219.1666717529297" y="222.07032775878906" text-anchor="middle" dominant-baseline="middle" style="font-family: &quot;trebuchet ms&quot;, verdana, arial, sans-serif;; font-size: 12px">successor</text></svg>