<?xml version="1.0" standalone="no"?>
<svg xmlns:xlink="http://www.w3.org/1999/xlink" id="mermaid-svg" width="undefined" xmlns="http://www.w3.org/2000/svg" height="undefined" style="max-width: 379.5625px;" viewBox="-39.671871185302734 0 379.5625 568.15625"><style>#mermaid-svg{font-family:"trebuchet ms",verdana,arial,sans-serif;font-size:16px;fill:#333;}#mermaid-svg .error-icon{fill:#552222;}#mermaid-svg .error-text{fill:#552222;stroke:#552222;}#mermaid-svg .edge-thickness-normal{stroke-width:2px;}#mermaid-svg .edge-thickness-thick{stroke-width:3.5px;}#mermaid-svg .edge-pattern-solid{stroke-dasharray:0;}#mermaid-svg .edge-pattern-dashed{stroke-dasharray:3;}#mermaid-svg .edge-pattern-dotted{stroke-dasharray:2;}#mermaid-svg .marker{fill:#333333;}#mermaid-svg .marker.cross{stroke:#333333;}#mermaid-svg svg{font-family:"trebuchet ms",verdana,arial,sans-serif;font-size:16px;}#mermaid-svg .entityBox{fill:#ECECFF;stroke:#9370DB;}#mermaid-svg .attributeBoxOdd{fill:#ffffff;stroke:#9370DB;}#mermaid-svg .attributeBoxEven{fill:#f2f2f2;stroke:#9370DB;}#mermaid-svg .relationshipLabelBox{fill:hsl(80,100%,96.2745098039%);opacity:0.7;background-color:hsl(80,100%,96.2745098039%);}#mermaid-svg .relationshipLabelBox rect{opacity:0.5;}#mermaid-svg .relationshipLine{stroke:#333333;}#mermaid-svg:root{--mermaid-font-family:"trebuchet ms",verdana,arial,sans-serif;}#mermaid-svg er{fill:apa;}</style><g/><defs><marker id="ONLY_ONE_START" refX="0" refY="9" markerWidth="18" markerHeight="18" orient="auto"><path stroke="gray" fill="none" d="M9,0 L9,18 M15,0 L15,18"/></marker></defs><defs><marker id="ONLY_ONE_END" refX="18" refY="9" markerWidth="18" markerHeight="18" orient="auto"><path stroke="gray" fill="none" d="M3,0 L3,18 M9,0 L9,18"/></marker></defs><defs><marker id="ZERO_OR_ONE_START" refX="0" refY="9" markerWidth="30" markerHeight="18" orient="auto"><circle stroke="gray" fill="white" cx="21" cy="9" r="6"/><path stroke="gray" fill="none" d="M9,0 L9,18"/></marker></defs><defs><marker id="ZERO_OR_ONE_END" refX="30" refY="9" markerWidth="30" markerHeight="18" orient="auto"><circle stroke="gray" fill="white" cx="9" cy="9" r="6"/><path stroke="gray" fill="none" d="M21,0 L21,18"/></marker></defs><defs><marker id="ONE_OR_MORE_START" refX="18" refY="18" markerWidth="45" markerHeight="36" orient="auto"><path stroke="gray" fill="none" d="M0,18 Q 18,0 36,18 Q 18,36 0,18 M42,9 L42,27"/></marker></defs><defs><marker id="ONE_OR_MORE_END" refX="27" refY="18" markerWidth="45" markerHeight="36" orient="auto"><path stroke="gray" fill="none" d="M3,9 L3,27 M9,18 Q27,0 45,18 Q27,36 9,18"/></marker></defs><defs><marker id="ZERO_OR_MORE_START" refX="18" refY="18" markerWidth="57" markerHeight="36" orient="auto"><circle stroke="gray" fill="white" cx="48" cy="18" r="6"/><path stroke="gray" fill="none" d="M0,18 Q18,0 36,18 Q18,36 0,18"/></marker></defs><defs><marker id="ZERO_OR_MORE_END" refX="39" refY="18" markerWidth="57" markerHeight="36" orient="auto"><circle stroke="gray" fill="white" cx="9" cy="18" r="6"/><path stroke="gray" fill="none" d="M21,18 Q39,0 57,18 Q39,36 21,18"/></marker></defs><path class="er relationshipLine" d="M93.65590560132677,66.03125L102.22106716777232,74.36458333333333C110.78622873421784,82.69791666666667,127.91655186710892,99.36458333333333,136.48171343355446,116.03125C145.046875,132.69791666666666,145.046875,149.36458333333334,145.046875,157.69791666666666L145.046875,166.03125" stroke="gray" fill="none" marker-end="url(#ONLY_ONE_END)" marker-start="url(#ZERO_OR_ONE_START)"/><path class="er relationshipLine" d="M46.34409439867323,66.03125L37.77893283222769,74.36458333333333C29.213771265782153,82.69791666666667,12.083448132891077,99.36458333333333,3.518286566445538,121.70182291666667C-5.046875,144.0390625,-5.046875,172.046875,-5.046875,200.0546875C-5.046875,228.0625,-5.046875,256.0703125,-5.046875,284.078125C-5.046875,312.0859375,-5.046875,340.09375,-5.046875,368.1015625C-5.046875,396.109375,-5.046875,424.1171875,3.518286566445538,446.4544270833333C12.083448132891077,468.7916666666667,29.213771265782153,485.4583333333333,37.77893283222769,493.7916666666667L46.34409439867323,502.125" stroke="gray" fill="none" marker-end="url(#ONLY_ONE_END)" marker-start="url(#ZERO_OR_ONE_START)"/><path class="er relationshipLine" d="M145.046875,402.125L145.046875,410.4583333333333C145.046875,418.7916666666667,145.046875,435.4583333333333,136.48171343355446,452.125C127.91655186710892,468.7916666666667,110.78622873421784,485.4583333333333,102.22106716777232,493.7916666666667L93.65590560132677,502.125" stroke="gray" fill="none" marker-end="url(#ONLY_ONE_END)" marker-start="url(#ZERO_OR_MORE_START)"/><path class="er relationshipLine" d="M195.046875,185.87825520833334L206.71354166666666,182.57042100694446C218.38020833333334,179.26258680555557,241.71354166666666,172.6469184027778,256.296875,169.33908420138889C270.8802083333333,166.03125,276.7135416666667,166.03125,282.546875,171.70182291666666C288.3802083333333,177.37239583333334,294.2135416666667,188.71354166666666,294.2135416666667,200.0546875C294.2135416666667,211.39583333333334,288.3802083333333,222.73697916666666,282.546875,228.40755208333334C276.7135416666667,234.078125,270.8802083333333,234.078125,256.296875,230.77029079861111C241.71354166666666,227.4624565972222,218.38020833333334,220.84678819444443,206.71354166666666,217.53895399305554L195.046875,214.23111979166666" stroke="gray" fill="none" marker-end="url(#ONLY_ONE_END)" marker-start="url(#ZERO_OR_ONE_START)"/><path class="er relationshipLine" d="M145.046875,234.078125L145.046875,242.41145833333334C145.046875,250.74479166666666,145.046875,267.4114583333333,145.046875,284.078125C145.046875,300.7447916666667,145.046875,317.4114583333333,145.046875,325.7447916666667L145.046875,334.078125" stroke="gray" fill="none" marker-end="url(#ONLY_ONE_END)" marker-start="url(#ZERO_OR_MORE_START)"/><g id="Theorem" transform="translate(20,20 )"><rect class="er entityBox" fill="honeydew" fill-opacity="100%" stroke="gray" x="0" y="0" width="100" height="46.03125"/><text class="er entityLabel" id="entity-Theorem" x="0" y="0" dominant-baseline="middle" text-anchor="middle" style="font-family: &quot;trebuchet ms&quot;, verdana, arial, sans-serif;; font-size: 12px" transform="translate(50,12.0078125)">Theorem</text><rect class="er attributeBoxOdd" fill="honeydew" fill-opacity="100%" stroke="gray" x="0" y="24.015625" width="51.9375" height="22.015625"/><text class="er entityLabel" id="entity-Theorem-attr-1-type" x="0" y="0" dominant-baseline="middle" text-anchor="left" style="font-family: &quot;trebuchet ms&quot;, verdana, arial, sans-serif;; font-size: 10.2px" transform="translate(5,35.0234375)">Int</text><rect class="er attributeBoxOdd" fill="honeydew" fill-opacity="100%" stroke="gray" x="051.9375" y="24.015625" width="48.0625" height="22.015625"/><text class="er entityLabel" id="entity-Theorem-attr-1-name" x="0" y="0" dominant-baseline="middle" text-anchor="left" style="font-family: &quot;trebuchet ms&quot;, verdana, arial, sans-serif;; font-size: 10.2px" transform="translate(56.9375,35.0234375)">id</text></g><g id="Proof" transform="translate(20,502.125 )"><rect class="er entityBox" fill="honeydew" fill-opacity="100%" stroke="gray" x="0" y="0" width="100" height="46.03125"/><text class="er entityLabel" id="entity-Proof" x="0" y="0" dominant-baseline="middle" text-anchor="middle" style="font-family: &quot;trebuchet ms&quot;, verdana, arial, sans-serif;; font-size: 12px" transform="translate(50,12.0078125)">Proof</text><rect class="er attributeBoxOdd" fill="honeydew" fill-opacity="100%" stroke="gray" x="0" y="24.015625" width="51.9375" height="22.015625"/><text class="er entityLabel" id="entity-Proof-attr-1-type" x="0" y="0" dominant-baseline="middle" text-anchor="left" style="font-family: &quot;trebuchet ms&quot;, verdana, arial, sans-serif;; font-size: 10.2px" transform="translate(5,35.0234375)">Int</text><rect class="er attributeBoxOdd" fill="honeydew" fill-opacity="100%" stroke="gray" x="051.9375" y="24.015625" width="48.0625" height="22.015625"/><text class="er entityLabel" id="entity-Proof-attr-1-name" x="0" y="0" dominant-baseline="middle" text-anchor="left" style="font-family: &quot;trebuchet ms&quot;, verdana, arial, sans-serif;; font-size: 10.2px" transform="translate(56.9375,35.0234375)">id</text></g><g id="ProofStep" transform="translate(94.953125,334.078125 )"><rect class="er entityBox" fill="honeydew" fill-opacity="100%" stroke="gray" x="0" y="0" width="100.1875" height="68.046875"/><text class="er entityLabel" id="entity-ProofStep" x="0" y="0" dominant-baseline="middle" text-anchor="middle" style="font-family: &quot;trebuchet ms&quot;, verdana, arial, sans-serif;; font-size: 12px" transform="translate(50.09375,12.0078125)">ProofStep</text><rect class="er attributeBoxOdd" fill="honeydew" fill-opacity="100%" stroke="gray" x="0" y="24.015625" width="36.53125" height="22.015625"/><text class="er entityLabel" id="entity-ProofStep-attr-1-type" x="0" y="0" dominant-baseline="middle" text-anchor="left" style="font-family: &quot;trebuchet ms&quot;, verdana, arial, sans-serif;; font-size: 10.2px" transform="translate(5,35.0234375)">Int</text><rect class="er attributeBoxOdd" fill="honeydew" fill-opacity="100%" stroke="gray" x="036.53125" y="24.015625" width="63.65625" height="22.015625"/><text class="er entityLabel" id="entity-ProofStep-attr-1-name" x="0" y="0" dominant-baseline="middle" text-anchor="left" style="font-family: &quot;trebuchet ms&quot;, verdana, arial, sans-serif;; font-size: 10.2px" transform="translate(41.53125,35.0234375)">id</text><rect class="er attributeBoxEven" fill="honeydew" fill-opacity="100%" stroke="gray" x="0" y="46.03125" width="36.53125" height="22.015625"/><text class="er entityLabel" id="entity-ProofStep-attr-2-type" x="0" y="0" dominant-baseline="middle" text-anchor="left" style="font-family: &quot;trebuchet ms&quot;, verdana, arial, sans-serif;; font-size: 10.2px" transform="translate(5,57.0390625)">String</text><rect class="er attributeBoxEven" fill="honeydew" fill-opacity="100%" stroke="gray" x="036.53125" y="46.03125" width="63.65625" height="22.015625"/><text class="er entityLabel" id="entity-ProofStep-attr-2-name" x="0" y="0" dominant-baseline="middle" text-anchor="left" style="font-family: &quot;trebuchet ms&quot;, verdana, arial, sans-serif;; font-size: 10.2px" transform="translate(41.53125,57.0390625)">explanation</text></g><g id="Claim" transform="translate(95.046875,166.03125 )"><rect class="er entityBox" fill="honeydew" fill-opacity="100%" stroke="gray" x="0" y="0" width="100" height="68.046875"/><text class="er entityLabel" id="entity-Claim" x="0" y="0" dominant-baseline="middle" text-anchor="middle" style="font-family: &quot;trebuchet ms&quot;, verdana, arial, sans-serif;; font-size: 12px" transform="translate(50,12.0078125)">Claim</text><rect class="er attributeBoxOdd" fill="honeydew" fill-opacity="100%" stroke="gray" x="0" y="24.015625" width="39.8671875" height="22.015625"/><text class="er entityLabel" id="entity-Claim-attr-1-type" x="0" y="0" dominant-baseline="middle" text-anchor="left" style="font-family: &quot;trebuchet ms&quot;, verdana, arial, sans-serif;; font-size: 10.2px" transform="translate(5,35.0234375)">Int</text><rect class="er attributeBoxOdd" fill="honeydew" fill-opacity="100%" stroke="gray" x="039.8671875" y="24.015625" width="60.1328125" height="22.015625"/><text class="er entityLabel" id="entity-Claim-attr-1-name" x="0" y="0" dominant-baseline="middle" text-anchor="left" style="font-family: &quot;trebuchet ms&quot;, verdana, arial, sans-serif;; font-size: 10.2px" transform="translate(44.8671875,35.0234375)">id</text><rect class="er attributeBoxEven" fill="honeydew" fill-opacity="100%" stroke="gray" x="0" y="46.03125" width="39.8671875" height="22.015625"/><text class="er entityLabel" id="entity-Claim-attr-2-type" x="0" y="0" dominant-baseline="middle" text-anchor="left" style="font-family: &quot;trebuchet ms&quot;, verdana, arial, sans-serif;; font-size: 10.2px" transform="translate(5,57.0390625)">String</text><rect class="er attributeBoxEven" fill="honeydew" fill-opacity="100%" stroke="gray" x="039.8671875" y="46.03125" width="60.1328125" height="22.015625"/><text class="er entityLabel" id="entity-Claim-attr-2-name" x="0" y="0" dominant-baseline="middle" text-anchor="left" style="font-family: &quot;trebuchet ms&quot;, verdana, arial, sans-serif;; font-size: 10.2px" transform="translate(44.8671875,57.0390625)">statement</text></g><rect class="er relationshipLabelBox" x="118.20118713378906" y="102.60861206054688" width="29.171875" height="14.015625" fill="white" fill-opacity="85%"/><text class="er relationshipLabel" id="rel6" x="132.78712463378906" y="109.61642456054688" text-anchor="middle" dominant-baseline="middle" style="font-family: &quot;trebuchet ms&quot;, verdana, arial, sans-serif;; font-size: 12px">claim</text><rect class="er relationshipLabelBox" x="-19.671871185302734" y="277.0703125" width="29.25" height="14.015625" fill="white" fill-opacity="85%"/><text class="er relationshipLabel" id="rel7" x="-5.046871185302734" y="284.078125" text-anchor="middle" dominant-baseline="middle" style="font-family: &quot;trebuchet ms&quot;, verdana, arial, sans-serif;; font-size: 12px">proof</text><rect class="er relationshipLabelBox" x="118.16970825195312" y="451.5318603515625" width="29.234375" height="14.015625" fill="white" fill-opacity="85%"/><text class="er relationshipLabel" id="rel8" x="132.78689575195312" y="458.5396728515625" text-anchor="middle" dominant-baseline="middle" style="font-family: &quot;trebuchet ms&quot;, verdana, arial, sans-serif;; font-size: 12px">proof</text><rect class="er relationshipLabelBox" x="268.7057189941406" y="193.046875" width="51.015625" height="14.015625" fill="white" fill-opacity="85%"/><text class="er relationshipLabel" id="rel9" x="294.2135314941406" y="200.0546875" text-anchor="middle" dominant-baseline="middle" style="font-family: &quot;trebuchet ms&quot;, verdana, arial, sans-serif;; font-size: 12px">successor</text><rect class="er relationshipLabelBox" x="118.828125" y="277.0703125" width="52.4375" height="14.015625" fill="white" fill-opacity="85%"/><text class="er relationshipLabel" id="rel10" x="145.046875" y="284.078125" text-anchor="middle" dominant-baseline="middle" style="font-family: &quot;trebuchet ms&quot;, verdana, arial, sans-serif;; font-size: 12px">proofStep</text></svg>