<?xml version="1.0" standalone="no"?>
<svg xmlns:xlink="http://www.w3.org/1999/xlink" id="mermaid-svg" width="undefined" xmlns="http://www.w3.org/2000/svg" height="undefined" style="max-width: 340.5625px;" viewBox="0 0 340.5625 422.96875"><style>#mermaid-svg{font-family:"trebuchet ms",verdana,arial,sans-serif;font-size:16px;fill:#333;}#mermaid-svg .error-icon{fill:#552222;}#mermaid-svg .error-text{fill:#552222;stroke:#552222;}#mermaid-svg .edge-thickness-normal{stroke-width:2px;}#mermaid-svg .edge-thickness-thick{stroke-width:3.5px;}#mermaid-svg .edge-pattern-solid{stroke-dasharray:0;}#mermaid-svg .edge-pattern-dashed{stroke-dasharray:3;}#mermaid-svg .edge-pattern-dotted{stroke-dasharray:2;}#mermaid-svg .marker{fill:#333333;}#mermaid-svg .marker.cross{stroke:#333333;}#mermaid-svg svg{font-family:"trebuchet ms",verdana,arial,sans-serif;font-size:16px;}#mermaid-svg .entityBox{fill:#ECECFF;stroke:#9370DB;}#mermaid-svg .attributeBoxOdd{fill:#ffffff;stroke:#9370DB;}#mermaid-svg .attributeBoxEven{fill:#f2f2f2;stroke:#9370DB;}#mermaid-svg .relationshipLabelBox{fill:hsl(80,100%,96.2745098039%);opacity:0.7;background-color:hsl(80,100%,96.2745098039%);}#mermaid-svg .relationshipLabelBox rect{opacity:0.5;}#mermaid-svg .relationshipLine{stroke:#333333;}#mermaid-svg:root{--mermaid-font-family:"trebuchet ms",verdana,arial,sans-serif;}#mermaid-svg er{fill:apa;}</style><g/><defs><marker id="ONLY_ONE_START" refX="0" refY="9" markerWidth="18" markerHeight="18" orient="auto"><path stroke="gray" fill="none" d="M9,0 L9,18 M15,0 L15,18"/></marker></defs><defs><marker id="ONLY_ONE_END" refX="18" refY="9" markerWidth="18" markerHeight="18" orient="auto"><path stroke="gray" fill="none" d="M3,0 L3,18 M9,0 L9,18"/></marker></defs><defs><marker id="ZERO_OR_ONE_START" refX="0" refY="9" markerWidth="30" markerHeight="18" orient="auto"><circle stroke="gray" fill="white" cx="21" cy="9" r="6"/><path stroke="gray" fill="none" d="M9,0 L9,18"/></marker></defs><defs><marker id="ZERO_OR_ONE_END" refX="30" refY="9" markerWidth="30" markerHeight="18" orient="auto"><circle stroke="gray" fill="white" cx="9" cy="9" r="6"/><path stroke="gray" fill="none" d="M21,0 L21,18"/></marker></defs><defs><marker id="ONE_OR_MORE_START" refX="18" refY="18" markerWidth="45" markerHeight="36" orient="auto"><path stroke="gray" fill="none" d="M0,18 Q 18,0 36,18 Q 18,36 0,18 M42,9 L42,27"/></marker></defs><defs><marker id="ONE_OR_MORE_END" refX="27" refY="18" markerWidth="45" markerHeight="36" orient="auto"><path stroke="gray" fill="none" d="M3,9 L3,27 M9,18 Q27,0 45,18 Q27,36 9,18"/></marker></defs><defs><marker id="ZERO_OR_MORE_START" refX="18" refY="18" markerWidth="57" markerHeight="36" orient="auto"><circle stroke="gray" fill="white" cx="48" cy="18" r="6"/><path stroke="gray" fill="none" d="M0,18 Q18,0 36,18 Q18,36 0,18"/></marker></defs><defs><marker id="ZERO_OR_MORE_END" refX="39" refY="18" markerWidth="57" markerHeight="36" orient="auto"><circle stroke="gray" fill="white" cx="9" cy="18" r="6"/><path stroke="gray" fill="none" d="M21,18 Q39,0 57,18 Q39,36 21,18"/></marker></defs><path class="er relationshipLine" d="M70,234.640625L70,242.97395833333334C70,251.30729166666666,70,267.9739583333333,77.42597233825303,284.640625C84.85194467650608,301.3072916666667,99.70388935301214,317.9739583333333,107.12986169126519,326.3072916666667L114.55583402951824,334.640625" stroke="gray" fill="none" marker-end="url(#ONLY_ONE_END)" marker-start="url(#ZERO_OR_ONE_START)"/><path class="er relationshipLine" d="M175.44416597048175,88.328125L182.8701383087348,96.66145833333333C190.29611064698784,104.99479166666667,205.14805532349394,121.66145833333333,212.57402766174695,142.1875C220,162.71354166666666,220,187.09895833333334,220,211.484375C220,235.86979166666666,220,260.2552083333333,212.57402766174695,280.78125C205.14805532349394,301.3072916666667,190.29611064698784,317.9739583333333,182.8701383087348,326.3072916666667L175.44416597048175,334.640625" stroke="gray" fill="none" marker-end="url(#ONLY_ONE_END)" marker-start="url(#ZERO_OR_ONE_START)"/><path class="er relationshipLine" d="M114.55583402951824,88.328125L107.1298616912652,96.66145833333333C99.70388935301214,104.99479166666667,84.85194467650608,121.66145833333333,77.42597233825303,138.328125C70,154.99479166666666,70,171.66145833333334,70,179.99479166666666L70,188.328125" stroke="gray" fill="none" marker-end="url(#ONLY_ONE_END)" marker-start="url(#ZERO_OR_MORE_START)"/><path class="er relationshipLine" d="M195,39.929036458333336L206.66666666666666,36.60753038194445C218.33333333333334,33.28602430555556,241.66666666666666,26.643012152777782,256.25,23.32150607638889C270.8333333333333,20,276.6666666666667,20,282.5,25.694010416666668C288.3333333333333,31.388020833333332,294.1666666666667,42.776041666666664,294.1666666666667,54.1640625C294.1666666666667,65.55208333333333,288.3333333333333,76.94010416666667,282.5,82.63411458333333C276.6666666666667,88.328125,270.8333333333333,88.328125,256.25,85.00661892361111C241.66666666666666,81.68511284722223,218.33333333333334,75.04210069444444,206.66666666666666,71.72059461805556L195,68.39908854166667" stroke="gray" fill="none" marker-end="url(#ONLY_ONE_END)" marker-start="url(#ZERO_OR_MORE_START)"/><path class="er relationshipLine" d="M195,354.5696614583333L206.66666666666666,351.2481553819444C218.33333333333334,347.9266493055555,241.66666666666666,341.28363715277777,256.25,337.96213107638886C270.8333333333333,334.640625,276.6666666666667,334.640625,282.5,340.3346354166667C288.3333333333333,346.0286458333333,294.1666666666667,357.4166666666667,294.1666666666667,368.8046875C294.1666666666667,380.1927083333333,288.3333333333333,391.5807291666667,282.5,397.2747395833333C276.6666666666667,402.96875,270.8333333333333,402.96875,256.25,399.6472439236111C241.66666666666666,396.32573784722223,218.33333333333334,389.6827256944445,206.66666666666666,386.3612196180556L195,383.0397135416667" stroke="gray" fill="none" marker-end="url(#ONLY_ONE_END)" marker-start="url(#ZERO_OR_ONE_START)"/><g id="Theorem" transform="translate(20,188.328125 )"><rect class="er entityBox" fill="honeydew" fill-opacity="100%" stroke="gray" x="0" y="0" width="100" height="46.3125"/><text class="er entityLabel" id="entity-Theorem" x="0" y="0" dominant-baseline="middle" text-anchor="middle" style="font-family: &quot;trebuchet ms&quot;, verdana, arial, sans-serif;; font-size: 12px" transform="translate(50,12.1484375)">Theorem</text><rect class="er attributeBoxOdd" fill="honeydew" fill-opacity="100%" stroke="gray" x="0" y="24.296875" width="52.1796875" height="22.015625"/><text class="er entityLabel" id="entity-Theorem-attr-1-type" x="0" y="0" dominant-baseline="middle" text-anchor="left" style="font-family: &quot;trebuchet ms&quot;, verdana, arial, sans-serif;; font-size: 10.2px" transform="translate(5,35.3046875)">Int</text><rect class="er attributeBoxOdd" fill="honeydew" fill-opacity="100%" stroke="gray" x="052.1796875" y="24.296875" width="47.8203125" height="22.015625"/><text class="er entityLabel" id="entity-Theorem-attr-1-name" x="0" y="0" dominant-baseline="middle" text-anchor="left" style="font-family: &quot;trebuchet ms&quot;, verdana, arial, sans-serif;; font-size: 10.2px" transform="translate(57.1796875,35.3046875)">id</text></g><g id="ProofStep" transform="translate(95,20 )"><rect class="er entityBox" fill="honeydew" fill-opacity="100%" stroke="gray" x="0" y="0" width="100" height="68.328125"/><text class="er entityLabel" id="entity-ProofStep" x="0" y="0" dominant-baseline="middle" text-anchor="middle" style="font-family: &quot;trebuchet ms&quot;, verdana, arial, sans-serif;; font-size: 12px" transform="translate(50,12.1484375)">ProofStep</text><rect class="er attributeBoxOdd" fill="honeydew" fill-opacity="100%" stroke="gray" x="0" y="24.296875" width="35.75" height="22.015625"/><text class="er entityLabel" id="entity-ProofStep-attr-1-type" x="0" y="0" dominant-baseline="middle" text-anchor="left" style="font-family: &quot;trebuchet ms&quot;, verdana, arial, sans-serif;; font-size: 10.2px" transform="translate(5,35.3046875)">Int</text><rect class="er attributeBoxOdd" fill="honeydew" fill-opacity="100%" stroke="gray" x="035.75" y="24.296875" width="64.25" height="22.015625"/><text class="er entityLabel" id="entity-ProofStep-attr-1-name" x="0" y="0" dominant-baseline="middle" text-anchor="left" style="font-family: &quot;trebuchet ms&quot;, verdana, arial, sans-serif;; font-size: 10.2px" transform="translate(40.75,35.3046875)">id</text><rect class="er attributeBoxEven" fill="honeydew" fill-opacity="100%" stroke="gray" x="0" y="46.3125" width="35.75" height="22.015625"/><text class="er entityLabel" id="entity-ProofStep-attr-2-type" x="0" y="0" dominant-baseline="middle" text-anchor="left" style="font-family: &quot;trebuchet ms&quot;, verdana, arial, sans-serif;; font-size: 10.2px" transform="translate(5,57.3203125)">Int</text><rect class="er attributeBoxEven" fill="honeydew" fill-opacity="100%" stroke="gray" x="035.75" y="46.3125" width="64.25" height="22.015625"/><text class="er entityLabel" id="entity-ProofStep-attr-2-name" x="0" y="0" dominant-baseline="middle" text-anchor="left" style="font-family: &quot;trebuchet ms&quot;, verdana, arial, sans-serif;; font-size: 10.2px" transform="translate(40.75,57.3203125)">orderKey</text></g><g id="Claim" transform="translate(95,334.640625 )"><rect class="er entityBox" fill="honeydew" fill-opacity="100%" stroke="gray" x="0" y="0" width="100" height="68.328125"/><text class="er entityLabel" id="entity-Claim" x="0" y="0" dominant-baseline="middle" text-anchor="middle" style="font-family: &quot;trebuchet ms&quot;, verdana, arial, sans-serif;; font-size: 12px" transform="translate(50,12.1484375)">Claim</text><rect class="er attributeBoxOdd" fill="honeydew" fill-opacity="100%" stroke="gray" x="0" y="24.296875" width="39.609375" height="22.015625"/><text class="er entityLabel" id="entity-Claim-attr-1-type" x="0" y="0" dominant-baseline="middle" text-anchor="left" style="font-family: &quot;trebuchet ms&quot;, verdana, arial, sans-serif;; font-size: 10.2px" transform="translate(5,35.3046875)">Int</text><rect class="er attributeBoxOdd" fill="honeydew" fill-opacity="100%" stroke="gray" x="039.609375" y="24.296875" width="60.390625" height="22.015625"/><text class="er entityLabel" id="entity-Claim-attr-1-name" x="0" y="0" dominant-baseline="middle" text-anchor="left" style="font-family: &quot;trebuchet ms&quot;, verdana, arial, sans-serif;; font-size: 10.2px" transform="translate(44.609375,35.3046875)">id</text><rect class="er attributeBoxEven" fill="honeydew" fill-opacity="100%" stroke="gray" x="0" y="46.3125" width="39.609375" height="22.015625"/><text class="er entityLabel" id="entity-Claim-attr-2-type" x="0" y="0" dominant-baseline="middle" text-anchor="left" style="font-family: &quot;trebuchet ms&quot;, verdana, arial, sans-serif;; font-size: 10.2px" transform="translate(5,57.3203125)">String</text><rect class="er attributeBoxEven" fill="honeydew" fill-opacity="100%" stroke="gray" x="039.609375" y="46.3125" width="60.390625" height="22.015625"/><text class="er entityLabel" id="entity-Claim-attr-2-name" x="0" y="0" dominant-baseline="middle" text-anchor="left" style="font-family: &quot;trebuchet ms&quot;, verdana, arial, sans-serif;; font-size: 10.2px" transform="translate(44.609375,57.3203125)">statement</text></g><rect class="er relationshipLabelBox" x="65.37602233886719" y="282.664794921875" width="29.171875" height="14.3125" fill="white" fill-opacity="85%"/><text class="er relationshipLabel" id="rel6" x="79.96195983886719" y="289.821044921875" text-anchor="middle" dominant-baseline="middle" style="font-family: &quot;trebuchet ms&quot;, verdana, arial, sans-serif;; font-size: 12px">claim</text><rect class="er relationshipLabelBox" x="205.40625" y="204.33592224121094" width="29.1875" height="14.296875" fill="white" fill-opacity="85%"/><text class="er relationshipLabel" id="rel7" x="220" y="211.48435974121094" text-anchor="middle" dominant-baseline="middle" style="font-family: &quot;trebuchet ms&quot;, verdana, arial, sans-serif;; font-size: 12px">claim</text><rect class="er relationshipLabelBox" x="57.219635009765625" y="125.99134826660156" width="45.484375" height="14.3125" fill="white" fill-opacity="85%"/><text class="er relationshipLabel" id="rel8" x="79.96182250976562" y="133.14759826660156" text-anchor="middle" dominant-baseline="middle" style="font-family: &quot;trebuchet ms&quot;, verdana, arial, sans-serif;; font-size: 12px">theorem</text><rect class="er relationshipLabelBox" x="267.8619689941406" y="47.00782012939453" width="52.609375" height="14.3125" fill="white" fill-opacity="85%"/><text class="er relationshipLabel" id="rel9" x="294.1666564941406" y="54.16407012939453" text-anchor="middle" dominant-baseline="middle" style="font-family: &quot;trebuchet ms&quot;, verdana, arial, sans-serif;; font-size: 12px">proofStep</text><rect class="er relationshipLabelBox" x="268.5885314941406" y="361.6484375" width="51.15625" height="14.3125" fill="white" fill-opacity="85%"/><text class="er relationshipLabel" id="rel10" x="294.1666564941406" y="368.8046875" text-anchor="middle" dominant-baseline="middle" style="font-family: &quot;trebuchet ms&quot;, verdana, arial, sans-serif;; font-size: 12px">successor</text></svg>